# xmcd
#
# Track frame offsets:
#	150
#	33613
#	54319
#	76856
#	100022
#	112915
#	137465
#	155066
#	176995
#	201191
#	220581
#	250761
#	257214
#
# Disc length: 3779 seconds
#
# Revision: 1
# Processed by: cddbd v1.5.2PL0 Copyright (c) Steve Scherf et al.
# Submitted via: audiograbber 1.83.01
#
DISCID=ac0ec10d
DTITLE=Chris Whitley and Jeff Lang - Dislocation Blues
DYEAR=2007
DGENRE=Blues
TTITLE0=Stagger Lee
TTITLE1=Twelve Thousand Miles
TTITLE2=When I Paint My Masterpiece
TTITLE3=Rocket House
TTITLE4=The Road Leads Down
TTITLE5=Dislocation Blues
TTITLE6=Forever in My Life
TTITLE7=Velocity Girl
TTITLE8=Ravenswood
TTITLE9=Underground
TTITLE10=Changing of the Guard
TTITLE11=Motion Bride
TTITLE12=Hellbound on My Trail
EXTD=
EXTT0=
EXTT1=
EXTT2=
EXTT3=
EXTT4=
EXTT5=
EXTT6=
EXTT7=
EXTT8=
EXTT9=
EXTT10=
EXTT11=
EXTT12=
PLAYORDER=
